<svg width="60" height="54" viewBox="0 0 60 54" fill="none" xmlns="http://www.w3.org/2000/svg">
<path d="M56.4669 0H3.34033C1.6765 0 0.321777 1.3452 0.321777 3V34.2C0.321777 34.5312 0.59224 34.8 0.925488 34.8H58.8817C59.215 34.8 59.4854 34.5312 59.4854 34.2V3C59.4854 1.3452 58.1307 0 56.4669 0ZM58.278 33.6H1.5292V3C1.5292 2.0076 2.34179 1.2 3.34033 1.2H56.4669C57.4654 1.2 58.278 2.0076 58.278 3V33.6Z" fill="black"/>
<path d="M58.8817 36.0001C58.5485 36.0001 58.278 36.2689 58.278 36.6001V39.0001C58.278 39.9925 57.4654 40.8001 56.4669 40.8001H3.34033C2.34179 40.8001 1.5292 39.9925 1.5292 39.0001V36.6001C1.5292 36.2689 1.25874 36.0001 0.925488 36.0001C0.59224 36.0001 0.321777 36.2689 0.321777 36.6001V39.0001C0.321777 40.6549 1.6765 42.0001 3.34033 42.0001H56.4669C58.1307 42.0001 59.4854 40.6549 59.4854 39.0001V36.6001C59.4854 36.2689 59.215 36.0001 58.8817 36.0001Z" fill="black"/>
<path d="M55.2593 3.59998H4.54756C4.21431 3.59998 3.94385 3.86878 3.94385 4.19998V30.6C3.94385 30.9312 4.21431 31.2 4.54756 31.2H55.2593C55.5925 31.2 55.863 30.9312 55.863 30.6V4.19998C55.863 3.86878 55.5925 3.59998 55.2593 3.59998ZM54.6556 30H5.15127V4.79997H54.6556V30Z" fill="black"/>
<path d="M19.0361 51.6C20.7386 51.6 22.2455 50.5188 22.784 48.9108L23.733 45.1176C23.7982 44.7924 23.5857 44.4768 23.2597 44.412C22.9264 44.3412 22.6137 44.5572 22.5497 44.8836L21.6393 48.5304C21.2638 49.6488 20.2182 50.4 19.0361 50.4C18.2211 50.4 17.4629 50.7156 16.9123 51.2772C16.3351 51.8364 16.0176 52.59 16.0176 53.4C16.0176 53.7312 16.288 54 16.6213 54H43.1846C43.5178 54 43.7883 53.7312 43.7883 53.4C43.7883 52.59 43.4707 51.8364 42.9056 51.2892C42.343 50.7156 41.5847 50.4 40.7697 50.4C39.5877 50.4 38.542 49.6488 38.1665 48.528L37.2573 44.8824C37.1921 44.5572 36.8758 44.3424 36.5474 44.4108C36.2202 44.4756 36.0089 44.7912 36.0741 45.1164L37.0231 48.9084C37.5604 50.5188 39.0673 51.6 40.7697 51.6C41.2563 51.6 41.7067 51.7872 42.0508 52.1376C42.2452 52.3248 42.3901 52.5516 42.4782 52.8H17.3276C17.417 52.5504 17.5643 52.3212 17.7659 52.1256C18.0992 51.7872 18.5495 51.6 19.0361 51.6Z" fill="black"/>
<path d="M34.7328 50.4C35.0661 50.4 35.3365 50.1312 35.3365 49.8C35.3365 49.4688 35.0661 49.2 34.7328 49.2H25.0734C24.7402 49.2 24.4697 49.4688 24.4697 49.8C24.4697 50.1312 24.7402 50.4 25.0734 50.4H34.7328Z" fill="black"/>
<path d="M29.9032 38.9999C30.5701 38.9999 31.1106 38.4627 31.1106 37.7999C31.1106 37.1372 30.5701 36.5999 29.9032 36.5999C29.2364 36.5999 28.6958 37.1372 28.6958 37.7999C28.6958 38.4627 29.2364 38.9999 29.9032 38.9999Z" fill="black"/>
</svg>
