<svg width="54" height="53" viewBox="0 0 54 53" fill="none" xmlns="http://www.w3.org/2000/svg">
<path d="M44.7376 39.3746L44.1978 36.146L43.6624 32.9497C43.6613 32.9335 43.6678 32.9173 43.6646 32.9011L43.1215 29.6562C43.0781 29.3955 42.8511 29.204 42.5861 29.204H11.085C10.82 29.204 10.593 29.3955 10.5496 29.6562L10.012 32.8675C10.0087 32.8794 10.0022 32.8892 10 32.9011L9.45696 36.146L8.91391 39.3909C8.90197 39.4612 8.90957 39.5315 8.92477 39.5996L8.41648 42.6358C8.39042 42.7926 8.43495 42.9527 8.53704 43.0738C8.6413 43.195 8.79118 43.2653 8.95193 43.2653H44.7507C44.9103 43.2653 45.0613 43.1961 45.1656 43.0738C45.2687 42.9527 45.3133 42.7915 45.2861 42.6358L44.7431 39.3909C44.742 39.3844 44.7387 39.38 44.7376 39.3746ZM11.5455 30.2857H42.1256L42.4883 32.4489H39.86H36.6017H33.3434H30.0851H26.8269H23.5686H20.3103H17.052H13.7937H11.1828L11.5455 30.2857ZM30.1677 36.7755L30.5304 38.9387H27.3699V36.7755H30.1677ZM27.3699 35.6938V33.5306H29.6246L29.9874 35.6938H27.3699ZM23.6663 35.6938L24.0291 33.5306H26.2838V35.6938H23.6663ZM26.2838 36.7755V38.9387H23.1233L23.486 36.7755H26.2838ZM11.7497 42.1836H9.59272L9.95548 40.0204H12.1125L11.7497 42.1836ZM12.2471 38.9387H10.0902L10.4529 36.7755H12.6099L12.2471 38.9387ZM10.6332 35.6938L10.996 33.5306H13.1529L12.7902 35.6938H10.6332ZM15.008 42.1836H12.851L13.2138 40.0204H15.3707L15.008 42.1836ZM15.5054 38.9387H13.3484L13.7112 36.7755H15.8682L15.5054 38.9387ZM13.8915 35.6938L14.2542 33.5306H16.4112L16.0485 35.6938H13.8915ZM18.2652 42.1836H16.1104L16.4731 40.0204H18.6279L18.2652 42.1836ZM18.7637 38.9387H16.6067L16.9695 36.7755H19.1265L18.7637 38.9387ZM17.1498 35.6938L17.5125 33.5306H19.6695L19.3067 35.6938H17.1498ZM21.5224 42.1836H21.3964H19.3676L19.7292 40.0204H21.884L21.5224 42.1836ZM22.022 38.9387H19.865L20.2278 36.7755H22.3847L22.022 38.9387ZM20.408 35.6938L20.7708 33.5306H22.9278L22.565 35.6938H20.408ZM22.6237 42.1836L22.9864 40.0204H26.8269H30.7107L31.0735 42.1836H22.6237ZM30.7259 33.5306H32.8829L33.2457 35.6938H31.0887L30.7259 33.5306ZM31.6317 38.9387L31.269 36.7755H33.426L33.7887 38.9387H31.6317ZM32.2573 42.1836H32.1748L31.812 40.0204H33.969L34.3318 42.1836H32.2573ZM33.9842 33.5306H36.1412L36.504 35.6938H34.347L33.9842 33.5306ZM34.89 38.9387L34.5273 36.7755H36.6842L37.047 38.9387H34.89ZM35.4363 42.1836L35.0736 40.0204H37.2305L37.5933 42.1836H35.4363ZM37.2425 33.5306H39.3995L39.7622 35.6938H37.6053L37.2425 33.5306ZM38.1483 38.9387L37.7855 36.7755H39.9425L40.3053 38.9387H38.1483ZM38.6946 42.1836L38.3318 40.0204H40.4888L40.8516 42.1836H38.6946ZM40.5008 33.5306H42.6578L43.0205 35.6938H40.8635L40.5008 33.5306ZM41.4066 38.9387L41.0438 36.7755H43.2008L43.5636 38.9387H41.4066ZM41.9529 42.1836L41.5901 40.0204H43.7471L44.1099 42.1836H41.9529Z" fill="black"/>
<path d="M18.4634 44.2864C18.1734 44.2323 17.8877 44.4378 17.841 44.7331L16.9526 50.2094C16.9037 50.5036 17.1057 50.7816 17.4012 50.8292C17.4305 50.8346 17.4598 50.8367 17.4891 50.8367C17.7498 50.8367 17.9811 50.6475 18.0235 50.3825L18.9119 44.9061C18.9608 44.6119 18.7588 44.334 18.4634 44.2864Z" fill="black"/>
<path d="M35.1901 44.388C34.8947 44.4367 34.6938 44.7147 34.7427 45.0089L35.6311 50.3835C35.6745 50.6485 35.9048 50.8368 36.1655 50.8368C36.1948 50.8368 36.2252 50.8346 36.2545 50.8292C36.5499 50.7805 36.7509 50.5025 36.702 50.2083L35.8136 44.8337C35.7647 44.5384 35.4812 44.3372 35.1901 44.388Z" fill="black"/>
<path d="M50.6067 32.9995C50.6067 32.9963 50.6089 32.993 50.6089 32.9898C50.6089 32.9541 50.5947 32.9227 50.5882 32.8892L49.5152 26.4124C49.4717 26.1506 49.2458 25.9592 48.9797 25.9592H4.67579C4.40969 25.9592 4.18379 26.1506 4.14034 26.4124L3.06619 32.8935C3.05968 32.926 3.04664 32.9552 3.04664 32.9898C3.04664 32.993 3.04882 32.9963 3.04882 32.9995L0.262986 49.8124C0.118536 50.6031 0.331411 51.4122 0.849478 52.0287C1.36754 52.6463 2.12672 53 2.93478 53H50.7207C51.5288 53 52.288 52.6463 52.806 52.0287C53.3241 51.4122 53.537 50.6042 53.3936 49.8222L50.6067 32.9995ZM51.9719 51.3354C51.6613 51.7064 51.2051 51.9184 50.7207 51.9184H2.93478C2.45038 51.9184 1.99422 51.7064 1.6836 51.3354C1.37406 50.9644 1.2459 50.4809 1.33388 49.9974L2.44821 43.2653H6.19197C6.49173 43.2653 6.73502 43.023 6.73502 42.7245C6.73502 42.426 6.49173 42.1837 6.19197 42.1837H2.62741L4.06106 33.5306H8.36416C8.66392 33.5306 8.90721 33.2883 8.90721 32.9898C8.90721 32.6913 8.66392 32.449 8.36416 32.449H4.24026L5.13629 27.0408H48.5181L49.4142 32.449H45.2913C44.9916 32.449 44.7483 32.6913 44.7483 32.9898C44.7483 33.2883 44.9916 33.5306 45.2913 33.5306H49.5945L51.0281 42.1837H47.4635C47.1638 42.1837 46.9205 42.426 46.9205 42.7245C46.9205 43.023 47.1638 43.2653 47.4635 43.2653H51.2062L52.3227 50.006C52.4107 50.4809 52.2825 50.9644 51.9719 51.3354Z" fill="black"/>
<path d="M48.8363 24.2491C48.7875 24.5433 48.9884 24.8223 49.2838 24.8699C49.3131 24.8753 49.3436 24.8775 49.3729 24.8775C49.6335 24.8775 49.8638 24.6893 49.9072 24.4243L53.3925 3.18859C53.5348 2.39468 53.3197 1.58453 52.8006 0.966919C52.2836 0.352552 51.5244 -6.10352e-05 50.7185 -6.10352e-05H2.93911C2.13323 -6.10352e-05 1.37514 0.352552 0.857072 0.968001C0.337919 1.58453 0.122873 2.39468 0.264065 3.18211L3.75043 24.4254C3.7993 24.7207 4.08168 24.9208 4.37384 24.871C4.66926 24.8234 4.87019 24.5444 4.82131 24.2502L1.33387 2.99823C1.24807 2.52015 1.37731 2.03341 1.69011 1.66133C2.00073 1.29249 2.4558 1.08157 2.93911 1.08157H50.7185C51.2019 1.08157 51.6569 1.29249 51.9665 1.66133C52.2793 2.03341 52.4085 2.52015 52.3216 3.0058L48.8363 24.2491Z" fill="black"/>
<path d="M26.8448 3.23843C27.1447 3.23843 27.3878 2.9963 27.3878 2.69762C27.3878 2.39893 27.1447 2.1568 26.8448 2.1568C26.5449 2.1568 26.3018 2.39893 26.3018 2.69762C26.3018 2.9963 26.5449 3.23843 26.8448 3.23843Z" fill="black"/>
</svg>
