<svg width="44" height="55" viewBox="0 0 44 55" fill="none" xmlns="http://www.w3.org/2000/svg">
<path d="M38.4346 0H20.7208C17.974 0 15.7388 2.22608 15.7388 4.96155V49.0642C15.7388 51.7997 17.974 54.0258 20.7208 54.0258H38.4346C41.1813 54.0258 43.4166 51.7997 43.4166 49.0642V4.96155C43.4166 2.22608 41.1813 0 38.4346 0ZM42.3095 49.0642C42.3095 51.1922 40.5713 52.9232 38.4346 52.9232H20.7208C18.584 52.9232 16.8459 51.1922 16.8459 49.0642V4.96155C16.8459 2.8336 18.584 1.10257 20.7208 1.10257H38.4346C40.5713 1.10257 42.3095 2.8336 42.3095 4.96155V49.0642Z" fill="black"/>
<path d="M14.6317 0.551283C14.6317 0.246975 14.3837 0 14.0782 0H5.22127C2.47452 0 0.239258 2.22608 0.239258 4.96155V49.0642C0.239258 51.7997 2.47452 54.0258 5.22127 54.0258H14.0782C14.3837 54.0258 14.6317 53.7788 14.6317 53.4745C14.6317 53.1702 14.3837 52.9232 14.0782 52.9232H5.22127C3.08454 52.9232 1.34637 51.1922 1.34637 49.0642V4.96155C1.34637 2.8336 3.08454 1.10257 5.22127 1.10257H14.0782C14.3837 1.10257 14.6317 0.855591 14.6317 0.551283Z" fill="black"/>
<path d="M28.4705 3.86117H32.899C33.2046 3.86117 33.4526 3.6142 33.4526 3.30989C33.4526 3.00558 33.2046 2.75861 32.899 2.75861H28.4705C28.165 2.75861 27.917 3.00558 27.917 3.30989C27.917 3.6142 28.165 3.86117 28.4705 3.86117Z" fill="black"/>
<path d="M39.5421 5.51282H19.6141C19.3085 5.51282 19.0605 5.75979 19.0605 6.0641V45.7565C19.0605 46.0608 19.3085 46.3078 19.6141 46.3078H39.5421C39.8477 46.3078 40.0957 46.0608 40.0957 45.7565V6.0641C40.0957 5.75979 39.8477 5.51282 39.5421 5.51282ZM38.9886 45.2052H20.1677V6.61538H38.9886V45.2052Z" fill="black"/>
<path d="M29.5775 47.4103C28.3564 47.4103 27.3633 48.3993 27.3633 49.6155C27.3633 50.8316 28.3564 51.8206 29.5775 51.8206C30.7987 51.8206 31.7917 50.8316 31.7917 49.6155C31.7917 48.3993 30.7987 47.4103 29.5775 47.4103ZM29.5775 50.718C28.9664 50.718 28.4704 50.2241 28.4704 49.6155C28.4704 49.0069 28.9664 48.5129 29.5775 48.5129C30.1886 48.5129 30.6846 49.0069 30.6846 49.6155C30.6846 50.2241 30.1886 50.718 29.5775 50.718Z" fill="black"/>
<path d="M26.283 3.85904C26.5888 3.85904 26.8366 3.61222 26.8366 3.30775C26.8366 3.00329 26.5888 2.75647 26.283 2.75647C25.9773 2.75647 25.7295 3.00329 25.7295 3.30775C25.7295 3.61222 25.9773 3.85904 26.283 3.85904Z" fill="black"/>
<path d="M6.32833 3.30768C4.80273 3.30768 3.56055 4.54366 3.56055 6.06409C3.56055 7.58453 4.80273 8.82051 6.32833 8.82051H10.7568C12.2824 8.82051 13.5246 7.58453 13.5246 6.06409C13.5246 4.54366 12.2824 3.30768 10.7568 3.30768H6.32833ZM12.4175 6.06409C12.4175 6.97592 11.6724 7.71794 10.7568 7.71794H6.32833C5.41275 7.71794 4.66766 6.97592 4.66766 6.06409C4.66766 5.15227 5.41275 4.41024 6.32833 4.41024H10.7568C11.6724 4.41024 12.4175 5.15227 12.4175 6.06409Z" fill="black"/>
</svg>
