<svg width="51" height="54" viewBox="0 0 51 54" fill="none" xmlns="http://www.w3.org/2000/svg">
<path d="M13.6523 2.7551V51.2449C13.6523 52.7646 14.8965 54 16.4245 54H47.4725C49.0005 54 50.2446 52.7646 50.2446 51.2449V2.7551C50.2446 1.23539 49.0005 0 47.4725 0H16.4245C14.8965 0 13.6523 1.23539 13.6523 2.7551ZM49.1358 2.7551V51.2449C49.1358 52.1563 48.3895 52.898 47.4725 52.898H16.4245C15.5075 52.898 14.7612 52.1563 14.7612 51.2449V2.7551C14.7612 1.84371 15.5075 1.10204 16.4245 1.10204H47.4725C48.3895 1.10204 49.1358 1.84371 49.1358 2.7551Z" fill="black"/>
<path d="M11.9892 0H3.11834C1.59033 0 0.346191 1.23539 0.346191 2.7551V4.95918C0.346191 5.26335 0.594576 5.5102 0.90062 5.5102C1.20666 5.5102 1.45505 5.26335 1.45505 4.95918V2.7551C1.45505 1.84371 2.20131 1.10204 3.11834 1.10204H11.9892C12.2952 1.10204 12.5436 0.855184 12.5436 0.55102C12.5436 0.246857 12.2952 0 11.9892 0Z" fill="black"/>
<path d="M0.346191 51.2449C0.346191 52.7646 1.59033 54 3.11834 54H11.9892C12.2952 54 12.5436 53.7531 12.5436 53.449C12.5436 53.1448 12.2952 52.8979 11.9892 52.8979H3.11834C2.20131 52.8979 1.45505 52.1563 1.45505 51.2449V4.68365C1.45505 4.37949 1.20666 4.13263 0.90062 4.13263C0.594576 4.13263 0.346191 4.37949 0.346191 4.68365V51.2449Z" fill="black"/>
<path d="M31.9504 3.29949C32.2566 3.29949 32.5049 3.05279 32.5049 2.74847C32.5049 2.44415 32.2566 2.19745 31.9504 2.19745C31.6442 2.19745 31.396 2.44415 31.396 2.74847C31.396 3.05279 31.6442 3.29949 31.9504 3.29949Z" fill="black"/>
<path d="M17.5339 46.2858H46.3642C46.6703 46.2858 46.9186 46.0389 46.9186 45.7347V4.95922C46.9186 4.65506 46.6703 4.4082 46.3642 4.4082H17.5339C17.2279 4.4082 16.9795 4.65506 16.9795 4.95922V45.7347C16.9795 46.0389 17.2279 46.2858 17.5339 46.2858ZM18.0883 5.51024H45.8098V45.1837H18.0883V5.51024Z" fill="black"/>
<path d="M31.9833 47.3878C30.7603 47.3878 29.7656 48.3763 29.7656 49.5918C29.7656 50.8074 30.7603 51.7959 31.9833 51.7959C33.2064 51.7959 34.2011 50.8074 34.2011 49.5918C34.2011 48.3763 33.2064 47.3878 31.9833 47.3878ZM31.9833 50.6939C31.3724 50.6939 30.8745 50.2002 30.8745 49.5918C30.8745 48.9835 31.3724 48.4898 31.9833 48.4898C32.5943 48.4898 33.0922 48.9835 33.0922 49.5918C33.0922 50.2002 32.5954 50.6939 31.9833 50.6939Z" fill="black"/>
<path d="M5.3364 6.06126C5.9488 6.06126 6.44525 5.56786 6.44525 4.95922C6.44525 4.35058 5.9488 3.85718 5.3364 3.85718C4.72399 3.85718 4.22754 4.35058 4.22754 4.95922C4.22754 5.56786 4.72399 6.06126 5.3364 6.06126Z" fill="black"/>
</svg>
