<svg width="20" height="21" viewBox="0 0 20 21" fill="none" xmlns="http://www.w3.org/2000/svg">
<g clip-path="url(#clip0)">
<path d="M13.2589 0.856934H6.02679C2.69879 0.856934 0 3.55573 0 6.88372V14.1159C0 17.4439 2.69879 20.1426 6.02679 20.1426H13.2589C16.5869 20.1426 19.2857 17.4439 19.2857 14.1159V6.88372C19.2857 3.55573 16.5869 0.856934 13.2589 0.856934ZM17.4777 14.1159C17.4777 16.4422 15.5853 18.3346 13.2589 18.3346H6.02679C3.70045 18.3346 1.80804 16.4422 1.80804 14.1159V6.88372C1.80804 4.55738 3.70045 2.66497 6.02679 2.66497H13.2589C15.5853 2.66497 17.4777 4.55738 17.4777 6.88372V14.1159Z" fill="white"/>
<path d="M9.64296 5.67822C6.98033 5.67822 4.82153 7.83702 4.82153 10.4997C4.82153 13.1623 6.98033 15.3211 9.64296 15.3211C12.3056 15.3211 14.4644 13.1623 14.4644 10.4997C14.4644 7.83702 12.3056 5.67822 9.64296 5.67822ZM9.64296 13.513C7.98198 13.513 6.62957 12.1606 6.62957 10.4997C6.62957 8.83746 7.98198 7.48626 9.64296 7.48626C11.3039 7.48626 12.6564 8.83746 12.6564 10.4997C12.6564 12.1606 11.3039 13.513 9.64296 13.513Z" fill="white"/>
<path d="M14.8256 5.95922C15.1804 5.95922 15.468 5.67159 15.468 5.31677C15.468 4.96195 15.1804 4.67432 14.8256 4.67432C14.4707 4.67432 14.1831 4.96195 14.1831 5.31677C14.1831 5.67159 14.4707 5.95922 14.8256 5.95922Z" fill="white"/>
</g>
<defs>
<clipPath id="clip0">
<rect y="0.856934" width="19.2857" height="19.2857" fill="white"/>
</clipPath>
</defs>
</svg>
