<svg width="44" height="46" viewBox="0 0 44 46" fill="none" xmlns="http://www.w3.org/2000/svg">
<path d="M11.1353 44.9625L11.9453 44.7362C12.7245 44.5184 13.1796 43.7102 12.9619 42.931L3.70039 9.7878C3.5697 9.32007 3.25856 8.92341 2.8354 8.68509C2.41225 8.44678 1.91175 8.38632 1.44403 8.51704L1.33941 8.54624C0.365364 8.81839 -0.203643 9.82863 0.0684957 10.8027L9.33019 43.9459C9.54792 44.7251 10.3561 45.1803 11.1353 44.9625Z" fill="#FF4E4E"/>
<path d="M43.7498 21.8013C40.8128 20.3369 38.0958 18.4676 35.6781 16.2482C35.4749 16.0622 35.3954 15.7767 35.4733 15.5124C36.6712 10.9805 37.5608 6.37274 38.136 1.72066C38.2271 0.946866 37.8098 0.719279 37.3698 1.25031C28.7367 11.5751 13.7995 -0.638652 4.90845 8.74549C5.01519 8.94534 5.09917 9.15655 5.15879 9.37514L11.1671 30.8896C20.0733 21.6193 34.9574 33.7572 43.5753 23.4551C44.0153 22.9241 44.0988 21.9531 43.7498 21.8013Z" fill="#FF4E4E"/>
</svg>
