<svg width="25" height="18" viewBox="0 0 25 18" fill="none" xmlns="http://www.w3.org/2000/svg">
<mask id="path-1-inside-1" fill="white">
<path fill-rule="evenodd" clip-rule="evenodd" d="M23.5528 3.61077C24.3788 2.78476 24.3788 1.44553 23.5528 0.619511C22.7268 -0.206504 21.3876 -0.206504 20.5616 0.619511L9.09489 12.0862L3.61077 6.60206C2.78476 5.77605 1.44553 5.77605 0.619511 6.60206C-0.206503 7.42807 -0.206504 8.76731 0.61951 9.59332L7.59912 16.5729C8.05815 17.032 8.67566 17.2359 9.27552 17.1848C9.75521 17.1439 10.2236 16.94 10.5907 16.5729L23.5528 3.61077Z"/>
</mask>
<path d="M23.5528 0.619511L24.2599 -0.0875955V-0.0875963L23.5528 0.619511ZM23.5528 3.61077L22.8457 2.90367V2.90367L23.5528 3.61077ZM20.5616 0.619511L21.2687 1.32662V1.32662L20.5616 0.619511ZM9.09489 12.0862L8.38778 12.7933L9.09489 13.5004L9.802 12.7933L9.09489 12.0862ZM3.61077 6.60206L4.31788 5.89495H4.31788L3.61077 6.60206ZM0.619511 6.60206L-0.0875954 5.89495L-0.0875957 5.89495L0.619511 6.60206ZM0.61951 9.59332L-0.0875966 10.3004L-0.0875965 10.3004L0.61951 9.59332ZM7.59912 16.5729L6.89201 17.28H6.89202L7.59912 16.5729ZM9.27552 17.1848L9.19071 16.1884L9.19056 16.1884L9.27552 17.1848ZM10.5907 16.5729L11.2978 17.28H11.2978L10.5907 16.5729ZM22.8457 1.32662C23.2812 1.76211 23.2812 2.46818 22.8457 2.90367L24.2599 4.31788C25.4765 3.10134 25.4765 1.12894 24.2599 -0.0875955L22.8457 1.32662ZM21.2687 1.32662C21.7042 0.891128 22.4102 0.891127 22.8457 1.32662L24.2599 -0.0875963C23.0434 -1.30413 21.071 -1.30414 19.8545 -0.0875959L21.2687 1.32662ZM9.802 12.7933L21.2687 1.32662L19.8545 -0.0875963L8.38778 11.3791L9.802 12.7933ZM2.90367 7.30917L8.38778 12.7933L9.802 11.3791L4.31788 5.89495L2.90367 7.30917ZM1.32662 7.30917C1.76211 6.87368 2.46818 6.87368 2.90367 7.30917L4.31788 5.89495C3.10134 4.67841 1.12894 4.67841 -0.0875954 5.89495L1.32662 7.30917ZM1.32662 8.88621C0.891128 8.45072 0.891127 7.74466 1.32662 7.30917L-0.0875957 5.89495C-1.30413 7.11149 -1.30414 9.08389 -0.0875966 10.3004L1.32662 8.88621ZM8.30623 15.8658L1.32662 8.88621L-0.0875965 10.3004L6.89201 17.28L8.30623 15.8658ZM9.19056 16.1884C8.8719 16.2155 8.54803 16.1076 8.30623 15.8658L6.89202 17.28C7.56826 17.9563 8.47943 18.2563 9.36047 18.1811L9.19056 16.1884ZM9.88358 15.8658C9.68947 16.0599 9.44414 16.1668 9.19071 16.1884L9.36033 18.1811C10.0663 18.1211 10.7578 17.82 11.2978 17.28L9.88358 15.8658ZM22.8457 2.90367L9.88358 15.8658L11.2978 17.28L24.2599 4.31788L22.8457 2.90367Z" fill="white" mask="url(#path-1-inside-1)"/>
</svg>
