<svg width="23" height="13" viewBox="0 0 23 13" fill="none" xmlns="http://www.w3.org/2000/svg">
<path d="M18.9925 7.59057C18.6287 7.1687 18.7328 6.98101 18.9925 6.6039C18.9972 6.5996 22.0001 2.78895 22.3095 1.49663L22.3114 1.49577C22.4651 1.02482 22.3114 0.678711 21.5679 0.678711H19.1078C18.4815 0.678711 18.1928 0.975745 18.0381 1.30808C18.0381 1.30808 16.7855 4.06146 15.0136 5.84625C14.4417 6.36197 14.1773 6.52728 13.8651 6.52728C13.7114 6.52728 13.4723 6.36197 13.4723 5.89102V1.49577C13.4723 0.930975 13.297 0.678711 12.7785 0.678711H8.91027C8.51744 0.678711 8.284 0.942168 8.284 1.18754C8.284 1.72307 9.16996 1.84619 9.26184 3.35288V6.62198C9.26184 7.33831 9.12028 7.47004 8.8062 7.47004C7.96992 7.47004 5.94017 4.70546 4.73731 1.5414C4.49449 0.927531 4.25729 0.679572 3.62634 0.679572H1.16531C0.463101 0.679572 0.321533 0.976606 0.321533 1.30894C0.321533 1.89612 1.15781 4.81567 4.21042 8.67281C6.24486 11.3057 9.10996 12.7323 11.7163 12.7323C13.2829 12.7323 13.4742 12.4154 13.4742 11.8705C13.4742 9.3547 13.3326 9.11707 14.1173 9.11707C14.4811 9.11707 15.1074 9.28238 16.5699 10.5523C18.2415 12.0581 18.5162 12.7323 19.4519 12.7323H21.912C22.6132 12.7323 22.9686 12.4154 22.7642 11.7904C22.2964 10.4757 19.135 7.77138 18.9925 7.59057Z" fill="white"/>
</svg>
