<svg width="34" height="34" viewBox="0 0 34 34" fill="none" xmlns="http://www.w3.org/2000/svg">
<path d="M18.4121 16.209H16.5879C15.5486 16.209 14.7031 15.3635 14.7031 14.3243C14.7031 13.285 15.5486 12.4395 16.5879 12.4395H20.2364C20.7066 12.4395 21.0879 12.0582 21.0879 11.5879C21.0879 11.1176 20.7066 10.7364 20.2364 10.7364H18.3516V8.85156C18.3516 8.38127 17.9703 8 17.5 8C17.0297 8 16.6484 8.38127 16.6484 8.85156V10.7364H16.5879C14.6095 10.7364 13 12.3459 13 14.3243C13 16.3026 14.6096 17.9121 16.5879 17.9121H18.4122C19.4514 17.9121 20.2969 18.7577 20.2969 19.7969C20.2969 20.8362 19.4514 21.6817 18.4122 21.6817H14.7637C14.2934 21.6817 13.9121 22.063 13.9121 22.5333C13.9121 23.0036 14.2934 23.3848 14.7637 23.3848H16.6484V25.2697C16.6484 25.74 17.0297 26.1213 17.5 26.1213C17.9703 26.1213 18.3516 25.74 18.3516 25.2697V23.3848H18.4121C20.3905 23.3848 22 21.7753 22 19.7969C22 17.8186 20.3905 16.209 18.4121 16.209Z" fill="white" stroke="#FF4E4E" stroke-width="0.5"/>
<circle cx="17" cy="17" r="16.5" stroke="white"/>
</svg>
