<svg width="28" height="24" viewBox="0 0 28 24" fill="none" xmlns="http://www.w3.org/2000/svg">
<path d="M22.1179 1H6.44811C3.44395 1 1 3.45788 1 6.47916V14.9417C1 17.3525 2.57383 19.4522 4.85442 20.1243L7.48565 22.7707C7.63178 22.9174 7.8296 23 8.03613 23C8.24246 23 8.44049 22.9174 8.58642 22.7707L11.0002 20.343H22.1179C25.1221 20.343 27.566 17.8851 27.566 14.8638V6.47916C27.566 3.45788 25.1221 1 22.1179 1ZM26.0094 14.8638C26.0094 17.0218 24.2637 18.7775 22.1179 18.7775H10.6779C10.4716 18.7775 10.2735 18.8601 10.1276 19.0068L8.03613 21.1102L5.80865 18.87C5.70873 18.7696 5.58347 18.6982 5.44625 18.664C3.74493 18.2381 2.5566 16.7075 2.5566 14.9417V6.47916C2.5566 4.32113 4.30231 2.56547 6.44811 2.56547H22.1179C24.2637 2.56547 26.0094 4.32113 26.0094 6.47916V14.8638Z" fill="white" stroke="#FF4E4E" stroke-width="0.5"/>
<path d="M19.3036 7.64148H9.26239C8.82565 7.64148 8.47168 8.01333 8.47168 8.47167C8.47168 8.93022 8.82565 9.30186 9.26239 9.30186H19.3036C19.7404 9.30186 20.0943 8.93022 20.0943 8.47167C20.0943 8.01333 19.7404 7.64148 19.3036 7.64148Z" fill="white" stroke="#FF4E4E" stroke-width="0.5"/>
<path d="M19.3036 12H9.26239C8.82565 12 8.47168 12.3716 8.47168 12.8302C8.47168 13.2887 8.82565 13.6604 9.26239 13.6604H19.3036C19.7404 13.6604 20.0943 13.2887 20.0943 12.8302C20.0943 12.3716 19.7404 12 19.3036 12Z" fill="white" stroke="#FF4E4E" stroke-width="0.5"/>
</svg>
