<svg width="35" height="24" viewBox="0 0 35 24" fill="none" xmlns="http://www.w3.org/2000/svg">
<path d="M2.68058 23.1836L32.2587 23.1836C33.1857 23.1836 33.9393 22.4294 33.9393 21.503L33.9393 2.68057C33.9393 1.75424 33.1857 1 32.2587 1L2.68057 1C1.75357 1 0.999999 1.75424 0.999999 2.68058L1 21.503C1 22.4294 1.75357 23.1836 2.68058 23.1836ZM2.68057 1.67223L32.2587 1.67223C32.8146 1.67223 33.267 2.12464 33.267 2.68057L33.267 21.503C33.267 22.059 32.8146 22.5114 32.2587 22.5114L2.68058 22.5114C2.12464 22.5114 1.67223 22.059 1.67223 21.503L1.67223 2.68058C1.67223 2.12464 2.12464 1.67223 2.68057 1.67223Z" fill="white" stroke="white" stroke-width="0.2"/>
<path d="M29.234 20.8304L29.234 3.35241C29.234 3.16687 29.0834 3.01629 28.8978 3.01629L4.02532 3.01629C3.83979 3.01629 3.68921 3.16687 3.68921 3.35241L3.68921 20.8304C3.68921 21.0159 3.83979 21.1665 4.02532 21.1665L28.8978 21.1665C29.0834 21.1665 29.234 21.0159 29.234 20.8304ZM4.36144 20.4943L4.36144 3.68852L28.5617 3.68852L28.5617 20.4943L4.36144 20.4943Z" fill="white" stroke="white" stroke-width="0.2"/>
<path d="M29.906 12.0708C29.906 12.8123 30.509 13.4153 31.2505 13.4153C31.9919 13.4153 32.5949 12.8123 32.5949 12.0708C32.5949 11.3294 31.9919 10.7264 31.2505 10.7264C30.509 10.7264 29.906 11.3294 29.906 12.0708ZM31.9227 12.0708C31.9227 12.4412 31.6215 12.7431 31.2505 12.7431C30.8794 12.7431 30.5782 12.4412 30.5782 12.0708C30.5782 11.7004 30.8794 11.3986 31.2505 11.3986C31.6215 11.3986 31.9227 11.6998 31.9227 12.0708Z" fill="white" stroke="white" stroke-width="0.2"/>
</svg>
